<svg width="30" height="30" viewBox="0 0 30 30" fill="none" xmlns="http://www.w3.org/2000/svg">
<path fill-rule="evenodd" clip-rule="evenodd" d="M30 12.88C30 6.16875 23.2712 0.707504 15 0.707504C6.73 0.707504 0 6.16875 0 12.88C0 18.8975 5.33625 23.9375 12.545 24.89C13.0338 24.995 13.6975 25.2125 13.8663 25.63C14.0175 26.0088 13.965 26.6025 13.915 26.9863L13.7013 28.27C13.635 28.6488 13.3988 29.7525 15 29.0788C16.6012 28.4038 23.6388 23.9925 26.785 20.37C28.9587 17.9863 30 15.5663 30 12.88ZM6.265 9.63625C6.42625 9.63625 6.5575 9.7675 6.5575 9.92875V15.12H9.41625C9.5775 15.12 9.7075 15.25 9.7075 15.4113V16.4638C9.7075 16.625 9.5775 16.7563 9.41625 16.7563H5.2125C5.13375 16.7563 5.06375 16.725 5.01125 16.675L5.01 16.6738L5.0075 16.6713L5.00625 16.67L5.0025 16.6663C4.9525 16.6138 4.92125 16.5425 4.92125 16.465V9.92875C4.92125 9.7675 5.05125 9.63625 5.2125 9.63625H6.265ZM25.005 9.63625C25.1663 9.63625 25.2962 9.7675 25.2962 9.92875V10.9813C25.2962 11.1425 25.1663 11.2738 25.005 11.2738H22.1462V12.3775H25.005C25.1663 12.3775 25.2962 12.5088 25.2962 12.67V13.7225C25.2962 13.8838 25.1663 14.015 25.005 14.015H22.1462V15.12H25.005C25.1663 15.12 25.2962 15.2513 25.2962 15.4113V16.4638C25.2962 16.625 25.1663 16.7563 25.005 16.7563H20.8013C20.7225 16.7563 20.6513 16.725 20.5988 16.675L20.595 16.67L20.5912 16.6663C20.5413 16.6138 20.5087 16.5425 20.5087 16.465V9.92875C20.5087 9.85125 20.54 9.78 20.59 9.7275L20.595 9.7225L20.5988 9.71875C20.6513 9.66875 20.7225 9.63625 20.8013 9.63625H25.005ZM11.9525 9.6375C12.1138 9.6375 12.245 9.7675 12.245 9.92875V16.465C12.245 16.625 12.1138 16.7563 11.9525 16.7563H10.9C10.7388 16.7563 10.6075 16.625 10.6075 16.465V9.92875C10.6075 9.7675 10.7388 9.6375 10.9 9.6375H11.9525ZM14.6112 9.6375H14.6212L14.6362 9.63875L14.6525 9.64L14.665 9.64125L14.6812 9.645L14.6912 9.64875L14.7087 9.65375L14.7188 9.6575L14.735 9.665L14.7437 9.66875L14.76 9.6775L14.7687 9.6825L14.7837 9.69375L14.7913 9.69875L14.8075 9.7125L14.8125 9.7175L14.83 9.735L14.8325 9.7375L14.855 9.76625L17.85 13.8113V9.92875C17.85 9.7675 17.9813 9.6375 18.1425 9.6375H19.1937C19.3562 9.6375 19.4862 9.7675 19.4862 9.92875V16.465C19.4862 16.625 19.3562 16.7563 19.1937 16.7563H18.1425L18.0675 16.7463L18.0625 16.745L18.0438 16.7388L18.035 16.735L18.02 16.73L18.0063 16.7225L17.9975 16.7188L17.98 16.7075L17.9775 16.705L17.9025 16.6325L14.9038 12.5825V16.465C14.9038 16.625 14.7738 16.7563 14.6112 16.7563H13.56C13.3987 16.7563 13.2675 16.625 13.2675 16.465V9.92875C13.2675 9.7675 13.3987 9.6375 13.56 9.6375H14.6112Z" fill="white"/>
</svg>
