<svg width="30" height="26" viewBox="0 0 30 26" fill="none" xmlns="http://www.w3.org/2000/svg">
<path fill-rule="evenodd" clip-rule="evenodd" d="M22.98 25.4737C23.3825 25.7587 23.9012 25.83 24.3637 25.655C24.8262 25.4788 25.1662 25.0837 25.2687 24.605C26.355 19.5 28.99 6.57875 29.9787 1.935C30.0537 1.585 29.9287 1.22125 29.6537 0.987502C29.3787 0.753752 28.9975 0.686252 28.6575 0.812502C23.4162 2.7525 7.27499 8.80875 0.677494 11.25C0.258744 11.405 -0.0137562 11.8075 -6.22292e-06 12.2488C0.0149938 12.6913 0.312494 13.075 0.741244 13.2038C3.69999 14.0888 7.58374 15.32 7.58374 15.32C7.58374 15.32 9.39874 20.8013 10.345 23.5888C10.4637 23.9388 10.7375 24.2138 11.0987 24.3088C11.4587 24.4025 11.8437 24.3037 12.1125 24.05C13.6325 22.615 15.9825 20.3962 15.9825 20.3962C15.9825 20.3962 20.4475 23.67 22.98 25.4737ZM9.21749 14.6275L11.3162 21.55L11.7825 17.1663C11.7825 17.1663 19.8912 9.8525 24.5137 5.68375C24.6487 5.56125 24.6675 5.35625 24.555 5.2125C24.4437 5.06875 24.2387 5.035 24.085 5.1325C18.7275 8.55375 9.21749 14.6275 9.21749 14.6275Z" fill="white"/>
</svg>
