<svg width="140" height="140" viewBox="0 0 140 140" fill="none" xmlns="http://www.w3.org/2000/svg">
<rect width="140" height="140" rx="5" fill="#4A4A4A"/>
<path d="M111.884 22L104.333 106.59L70.3915 116L36.543 106.603L29 22H111.884Z" fill="#264DE4"/>
<path d="M97.869 101.204L104.322 28.9176H70.4422V108.808L97.869 101.204Z" fill="#2965F1"/>
<path d="M46.2922 60.2958L47.2222 70.6719H70.4423V60.2958H46.2922Z" fill="#EBEBEB"/>
<path d="M70.4422 39.2939H70.4063H44.4234L45.3667 49.6703H70.4422V39.2939Z" fill="#EBEBEB"/>
<path d="M70.4422 98.0397V87.2441L70.3967 87.2562L58.8406 84.1358L58.1019 75.8602H52.4865H47.6857L49.1394 92.1524L70.3944 98.053L70.4422 98.0397Z" fill="#EBEBEB"/>
<path d="M83.1835 70.6719L81.9791 84.1291L70.4063 87.2527V98.0479L91.6782 92.1524L91.8343 90.3994L94.2726 63.0821L94.5258 60.2958L96.399 39.2939H70.4063V49.6703H85.0275L84.0834 60.2958H70.4063V70.6719H83.1835Z" fill="white"/>
</svg>
