<svg width="140" height="140" viewBox="0 0 140 140" fill="none" xmlns="http://www.w3.org/2000/svg">
<rect width="140" height="140" rx="5" fill="#4A4A4A"/>
<g clip-path="url(#clip0)">
<path d="M53.67 120C62.8681 120 70.3333 112.533 70.3333 103.333V86.6666H53.67C44.4718 86.6666 37.0067 94.1333 37.0067 103.333C37.0067 112.533 44.4718 120 53.67 120Z" fill="#0ACF83"/>
<path d="M37.0067 70C37.0067 60.8 44.4718 53.3334 53.67 53.3334H70.3333V86.6667H53.67C44.4718 86.6667 37.0067 79.2 37.0067 70Z" fill="#A259FF"/>
<path d="M37.0066 36.6667C37.0066 27.4667 44.4717 20 53.6699 20H70.3332V53.3333H53.6699C44.4717 53.3333 37.0066 45.8667 37.0066 36.6667Z" fill="#F24E1E"/>
<path d="M70.3333 20H86.9967C96.1948 20 103.66 27.4667 103.66 36.6667C103.66 45.8667 96.1948 53.3333 86.9967 53.3333H70.3333V20Z" fill="#FF7262"/>
<path d="M103.66 70C103.66 79.2 96.1948 86.6667 86.9967 86.6667C77.7985 86.6667 70.3333 79.2 70.3333 70C70.3333 60.8 77.7985 53.3334 86.9967 53.3334C96.1948 53.3334 103.66 60.8 103.66 70Z" fill="#1ABCFE"/>
</g>
<defs>
<clipPath id="clip0">
<rect width="66.6667" height="100" fill="white" transform="translate(37 20)"/>
</clipPath>
</defs>
</svg>
