<svg width="140" height="140" viewBox="0 0 140 140" fill="none" xmlns="http://www.w3.org/2000/svg">
<rect width="140" height="140" rx="5" fill="#4A4A4A"/>
<path d="M36.541 107.642L29 23H111.905L104.364 107.596L70.3842 117.011" fill="#E44D26"/>
<path d="M70.4527 109.813V29.9469H104.342L97.8746 102.158" fill="#F16529"/>
<path d="M44.4019 40.2986H70.4527V50.6732H55.782L56.7418 61.2992H70.4527V71.6509H47.2355L44.4019 40.2986ZM47.6925 76.8611H58.1129L58.8441 85.1562L70.4527 88.264V99.0956L49.155 93.1542" fill="#EBEBEB"/>
<path d="M96.4121 40.2986H70.407V50.6732H95.4523L96.4121 40.2986ZM94.5154 61.2992H70.407V71.6738H83.2039L81.9927 85.1562L70.407 88.264V99.0499L91.6589 93.1542" fill="white"/>
</svg>
