<svg width="140" height="140" viewBox="0 0 140 140" fill="none" xmlns="http://www.w3.org/2000/svg">
<path d="M140 0H0V140H140V0Z" fill="#F7DF1E"/>
<path d="M94.0444 109.376C96.8644 113.98 100.533 117.364 107.022 117.364C112.473 117.364 115.956 114.64 115.956 110.876C115.956 106.364 112.378 104.767 106.378 102.142L103.089 100.731C93.5956 96.6867 87.2889 91.62 87.2889 80.9089C87.2889 71.0422 94.8067 63.5311 106.556 63.5311C114.92 63.5311 120.933 66.4422 125.267 74.0645L115.022 80.6422C112.767 76.5978 110.333 75.0045 106.556 75.0045C102.702 75.0045 100.26 77.4489 100.26 80.6422C100.26 84.5889 102.704 86.1867 108.349 88.6311L111.638 90.04C122.816 94.8333 129.127 99.72 129.127 110.707C129.127 122.551 119.822 129.04 107.327 129.04C95.1089 129.04 87.2156 123.218 83.3533 115.587L94.0444 109.376ZM47.5711 110.516C49.6378 114.182 51.5178 117.282 56.0378 117.282C60.36 117.282 63.0867 115.591 63.0867 109.016V64.2822H76.2422V109.193C76.2422 122.816 68.2556 129.016 56.5978 129.016C46.0644 129.016 39.9645 123.564 36.8622 116.999L47.5711 110.516Z" fill="black"/>
</svg>
