<svg width="140" height="140" viewBox="0 0 140 140" fill="none" xmlns="http://www.w3.org/2000/svg">
<rect width="140" height="140" rx="5" fill="#4A4A4A"/>
<path d="M69.95 48.0513H35.3731C35.3731 48.0513 25 48.0513 25 69.95C25 91.8487 35.3731 91.8487 35.3731 91.8487H45.7462V81.4756C45.7462 74.5602 51.509 68.7974 58.4244 68.7974H81.4756C87.2385 68.7974 91.8487 64.1872 91.8487 58.4244V35.3731C91.8487 35.3731 91.8487 25 69.95 25C48.0513 25 48.0513 35.3731 48.0513 35.3731V45.7462H69.95V48.0513Z" fill="#3377BB"/>
<path d="M69.95 91.8487H104.527C104.527 91.8487 114.9 91.8487 114.9 69.95C114.9 48.0513 104.527 48.0513 104.527 48.0513H94.1538V58.4243C94.1538 65.3397 88.391 71.1025 81.4756 71.1025H58.4243C52.6615 71.1025 48.0513 75.7128 48.0513 81.4756V104.527C48.0513 104.527 48.0513 114.9 69.95 114.9C91.8487 114.9 91.8487 104.527 91.8487 104.527V94.1538H69.95V91.8487Z" fill="#FFBB33"/>
<path d="M58.4244 38.8308C60.3341 38.8308 61.8821 37.2827 61.8821 35.3731C61.8821 33.4635 60.3341 31.9154 58.4244 31.9154C56.5148 31.9154 54.9667 33.4635 54.9667 35.3731C54.9667 37.2827 56.5148 38.8308 58.4244 38.8308Z" fill="white"/>
<path d="M81.4756 107.985C83.3853 107.985 84.9333 106.437 84.9333 104.527C84.9333 102.617 83.3853 101.069 81.4756 101.069C79.566 101.069 78.0179 102.617 78.0179 104.527C78.0179 106.437 79.566 107.985 81.4756 107.985Z" fill="white"/>
</svg>
