<svg width="140" height="140" viewBox="0 0 140 140" fill="none" xmlns="http://www.w3.org/2000/svg">
<rect width="140" height="140" rx="5" fill="#4A4A4A"/>
<path d="M121.413 69.9942C121.413 63.153 112.834 56.6696 99.6806 52.649C102.716 39.2612 101.367 28.6099 95.4227 25.1998C94.0525 24.3999 92.4505 24.021 90.701 24.021V28.7152C91.6706 28.7152 92.4505 28.9046 93.104 29.2625C95.9707 30.9044 97.2144 37.1562 96.2447 45.1973C96.0129 47.176 95.6335 49.26 95.1697 51.386C91.0383 50.3756 86.5274 49.5968 81.7846 49.0916C78.939 45.1973 75.988 41.6609 73.0158 38.5666C79.8875 32.1884 86.3377 28.6941 90.7221 28.6941V24C84.9254 24 77.337 28.1258 69.6643 35.2828C61.9916 28.1679 54.4032 24.0842 48.6065 24.0842V28.7783C52.9698 28.7783 59.441 32.2516 66.3128 38.5876C63.3617 41.682 60.4107 45.1973 57.6072 49.0916C52.8434 49.5968 48.3325 50.3756 44.201 51.4071C43.7162 49.3021 43.3579 47.2602 43.1049 45.3026C42.1142 37.2615 43.3368 31.0096 46.1824 29.3467C46.8148 28.9678 47.6369 28.7994 48.6065 28.7994V24.1052C46.8359 24.1052 45.2339 24.4841 43.8427 25.284C37.9195 28.6941 36.5916 39.3244 39.648 52.6701C26.5369 56.7117 18 63.174 18 69.9942C18 76.8355 26.5791 83.3189 39.7323 87.3394C36.697 100.727 38.046 111.379 43.9902 114.789C45.3604 115.589 46.9624 115.967 48.733 115.967C54.5297 115.967 62.1181 111.842 69.7908 104.685C77.4635 111.8 85.0519 115.883 90.8485 115.883C92.6192 115.883 94.2212 115.504 95.6124 114.704C101.536 111.294 102.864 100.664 99.8071 87.3184C112.876 83.2978 121.413 76.8144 121.413 69.9942ZM93.9682 55.9539C93.1883 58.6693 92.2187 61.469 91.1226 64.2686C90.2583 62.5846 89.352 60.9006 88.3612 59.2166C87.3916 57.5326 86.3588 55.8907 85.3259 54.2909C88.3191 54.733 91.2069 55.2803 93.9682 55.9539ZM84.3141 78.3721C82.67 81.2139 80.9836 83.9083 79.2341 86.4132C76.0933 86.6869 72.9104 86.8342 69.7065 86.8342C66.5235 86.8342 63.3406 86.6869 60.221 86.4343C58.4714 83.9293 56.764 81.256 55.1199 78.4353C53.5179 75.6777 52.0634 72.8781 50.7355 70.0574C52.0424 67.2367 53.5179 64.416 55.0988 61.6584C56.743 58.8167 58.4293 56.1223 60.1788 53.6173C63.3196 53.3437 66.5025 53.1963 69.7065 53.1963C72.8894 53.1963 76.0723 53.3437 79.1919 53.5963C80.9415 56.1012 82.6489 58.7746 84.293 61.5953C85.895 64.3528 87.3495 67.1525 88.6774 69.9732C87.3495 72.7939 85.895 75.6146 84.3141 78.3721ZM91.1226 75.6356C92.2608 78.4563 93.2305 81.277 94.0315 84.0135C91.2701 84.6871 88.3612 85.2555 85.347 85.6975C86.3798 84.0767 87.4127 82.4137 88.3823 80.7087C89.352 79.0247 90.2583 77.3196 91.1226 75.6356ZM69.7486 98.096C67.7883 96.0752 65.8279 93.8228 63.8887 91.36C65.7858 91.4442 67.725 91.5073 69.6854 91.5073C71.6668 91.5073 73.6271 91.4652 75.5453 91.36C73.6482 93.8228 71.6879 96.0752 69.7486 98.096ZM54.0659 85.6975C51.0727 85.2555 48.1849 84.7082 45.4236 84.0346C46.2035 81.3191 47.1731 78.5195 48.2692 75.7198C49.1335 77.4038 50.0399 79.0878 51.0306 80.7718C52.0213 82.4558 53.0331 84.0977 54.0659 85.6975ZM69.6432 41.8925C71.6036 43.9133 73.5639 46.1656 75.5031 48.6285C73.606 48.5443 71.6668 48.4811 69.7065 48.4811C67.725 48.4811 65.7647 48.5232 63.8465 48.6285C65.7436 46.1656 67.704 43.9133 69.6432 41.8925ZM54.0449 54.2909C53.012 55.9118 51.9791 57.5747 51.0095 59.2798C50.0399 60.9638 49.1335 62.6478 48.2692 64.3318C47.131 61.5111 46.1614 58.6904 45.3604 55.9539C48.1217 55.3013 51.0306 54.733 54.0449 54.2909ZM34.9685 80.6455C27.5066 77.467 22.6795 73.2991 22.6795 69.9942C22.6795 66.6894 27.5066 62.5004 34.9685 59.3429C36.7813 58.5641 38.7627 57.8694 40.8073 57.2169C42.0088 61.3427 43.5897 65.6369 45.5501 70.0363C43.6108 74.4147 42.051 78.6879 40.8706 82.7926C38.7838 82.1401 36.8023 81.4244 34.9685 80.6455ZM46.3089 110.726C43.4422 109.084 42.1985 102.832 43.1682 94.7911C43.4 92.8124 43.7795 90.7285 44.2432 88.6024C48.3746 89.6128 52.8855 90.3917 57.6283 90.8969C60.4739 94.7911 63.4249 98.3275 66.3971 101.422C59.5254 107.8 53.0752 111.294 48.6908 111.294C47.7423 111.273 46.9413 111.084 46.3089 110.726ZM96.308 94.6859C97.2987 102.727 96.0761 108.979 93.2305 110.642C92.5981 111.021 91.776 111.189 90.8064 111.189C86.4431 111.189 79.9719 107.716 73.1002 101.38C76.0512 98.2854 79.0022 94.7701 81.8057 90.8758C86.5695 90.3706 91.0804 89.5918 95.2119 88.5603C95.6967 90.6864 96.0761 92.7282 96.308 94.6859ZM104.423 80.6455C102.611 81.4244 100.629 82.119 98.5845 82.7716C97.383 78.6458 95.8021 74.3516 93.8418 69.9521C95.781 65.5737 97.3408 61.3006 98.5213 57.1958C100.608 57.8484 102.589 58.5641 104.444 59.3429C111.906 62.5215 116.733 66.6894 116.733 69.9942C116.712 73.2991 111.885 77.488 104.423 80.6455Z" fill="#61DAFB"/>
<path d="M69.6853 79.614C75.0055 79.614 79.3184 75.307 79.3184 69.9941C79.3184 64.6812 75.0055 60.3743 69.6853 60.3743C64.3652 60.3743 60.0523 64.6812 60.0523 69.9941C60.0523 75.307 64.3652 79.614 69.6853 79.614Z" fill="#61DAFB"/>
</svg>
