<svg width="512" height="512" viewBox="0 0 512 512" fill="none" xmlns="http://www.w3.org/2000/svg">
<circle cx="256" cy="256" r="256" fill="#00677C"/>
<path d="M273.551 165.647C256.667 165.659 240.25 171.753 226.8 183C213.349 194.247 203.602 210.03 199.044 227.947C198.792 227.941 198.54 227.938 198.289 227.937C192.323 227.937 186.416 229.232 180.905 231.748C175.393 234.264 170.385 237.952 166.167 242.601C161.949 247.25 158.603 252.769 156.32 258.843C154.037 264.917 152.862 271.428 152.862 278.002C152.867 289.491 156.457 300.628 163.029 309.545C170.236 326.527 186.947 338.373 206.512 338.373H342.788C365.923 338.373 385.063 321.809 389.22 299.773C392.103 293.076 393.6 285.756 393.604 278.343C393.604 265.067 388.819 252.334 380.303 242.946C371.786 233.557 360.235 228.281 348.189 228.277C343.679 210.276 333.936 194.401 320.454 183.088C306.972 171.775 290.496 165.648 273.551 165.647V165.647Z" fill="#E1E1E1"/>
<path d="M250.194 173.626C233.311 173.638 216.893 179.732 203.443 190.979C189.992 202.225 180.245 218.009 175.687 235.926C175.435 235.92 175.184 235.917 174.932 235.916C168.966 235.916 163.059 237.211 157.548 239.727C152.037 242.243 147.029 245.93 142.811 250.579C138.592 255.229 135.246 260.748 132.963 266.822C130.68 272.896 129.505 279.407 129.505 285.981C129.51 297.47 133.1 308.607 139.672 317.524C146.88 334.506 163.591 346.352 183.155 346.352H319.431C342.566 346.352 361.706 329.788 365.864 307.752C368.746 301.055 370.243 293.735 370.247 286.322C370.247 273.046 365.463 260.313 356.946 250.925C348.429 241.536 336.878 236.26 324.832 236.256C320.323 218.255 310.58 202.38 297.098 191.067C283.616 179.754 267.139 173.627 250.194 173.626V173.626Z" fill="white"/>
<path d="M264.516 168.659C247.632 168.671 231.215 174.765 217.765 186.012C204.314 197.259 194.567 213.042 190.009 230.959C189.757 230.953 189.505 230.95 189.254 230.949C183.288 230.949 177.381 232.244 171.87 234.76C166.358 237.276 161.351 240.964 157.132 245.613C152.914 250.262 149.568 255.781 147.285 261.855C145.002 267.929 143.827 274.44 143.827 281.014C143.832 292.503 147.422 303.64 153.994 312.557C161.202 329.539 177.912 341.385 197.477 341.385H333.753C356.888 341.385 376.028 324.821 380.185 302.785C383.068 296.088 384.565 288.768 384.569 281.355C384.569 268.079 379.785 255.346 371.268 245.958C362.751 236.569 351.2 231.293 339.154 231.289C334.644 213.288 324.901 197.413 311.419 186.1C297.938 174.787 281.461 168.66 264.516 168.659V168.659Z" fill="#E1E1E1"/>
<path d="M241.159 176.638C224.276 176.65 207.859 182.744 194.408 193.991C180.957 205.238 171.211 221.021 166.652 238.938C166.4 238.932 166.149 238.929 165.897 238.928C159.931 238.928 154.024 240.223 148.513 242.739C143.002 245.255 137.994 248.942 133.776 253.592C129.557 258.241 126.211 263.76 123.928 269.834C121.645 275.908 120.47 282.419 120.47 288.993C120.475 300.482 124.065 311.619 130.637 320.536C137.845 337.518 154.556 349.364 174.12 349.364H310.396C333.531 349.364 352.671 332.8 356.829 310.764C359.711 304.067 361.209 296.747 361.212 289.334C361.212 276.058 356.428 263.325 347.911 253.937C339.395 244.548 327.843 239.272 315.797 239.268C311.288 221.267 301.545 205.392 288.063 194.079C274.581 182.766 258.104 176.639 241.159 176.638V176.638Z" fill="white"/>
</svg>
